<?xml version="1.0" encoding="UTF-8" standalone="no"?>
<!-- Uploaded to: SVG Repo, www.svgrepo.com, Generator: SVG Repo Mixer Tools -->

<svg
   fill="#000000"
   height="800px"
   width="800px"
   version="1.1"
   id="Capa_1"
   viewBox="0 0 471.701 471.701"
   xml:space="preserve"
   sodipodi:docname="heart-filled.svg"
   inkscape:version="1.3.2 (091e20e, 2023-11-25, custom)"
   xmlns:inkscape="http://www.inkscape.org/namespaces/inkscape"
   xmlns:sodipodi="http://sodipodi.sourceforge.net/DTD/sodipodi-0.dtd"
   xmlns="http://www.w3.org/2000/svg"
   xmlns:svg="http://www.w3.org/2000/svg"><defs
   id="defs1" /><sodipodi:namedview
   id="namedview1"
   pagecolor="#ffffff"
   bordercolor="#000000"
   borderopacity="0.25"
   inkscape:showpageshadow="2"
   inkscape:pageopacity="0.0"
   inkscape:pagecheckerboard="0"
   inkscape:deskcolor="#d1d1d1"
   showgrid="false"
   inkscape:zoom="0.710625"
   inkscape:cx="550.21988"
   inkscape:cy="566.40281"
   inkscape:window-width="2560"
   inkscape:window-height="1351"
   inkscape:window-x="2391"
   inkscape:window-y="-9"
   inkscape:window-maximized="1"
   inkscape:current-layer="Capa_1" />
<g
   id="g1">
	<path
   d="M433.601,67.001c-24.7-24.7-57.4-38.2-92.3-38.2s-67.7,13.6-92.4,38.3l-12.9,12.9l-13.1-13.1   c-24.7-24.7-57.6-38.4-92.5-38.4c-34.8,0-67.6,13.6-92.2,38.2c-24.7,24.7-38.3,57.5-38.2,92.4c0,34.9,13.7,67.6,38.4,92.3   l187.8,187.8c2.6,2.6,6.1,4,9.5,4c3.4,0,6.9-1.3,9.5-3.9l188.2-187.5c24.7-24.7,38.3-57.5,38.3-92.4   C471.801,124.501,458.301,91.701,433.601,67.001z M414.401,232.701l-178.7,178l-178.3-178.3c-19.6-19.6-30.4-45.6-30.4-73.3   s10.7-53.7,30.3-73.2c19.5-19.5,45.5-30.3,73.1-30.3c27.7,0,53.8,10.8,73.4,30.4l22.6,22.6c5.3,5.3,13.8,5.3,19.1,0l22.4-22.4   c19.6-19.6,45.7-30.4,73.3-30.4c27.6,0,53.6,10.8,73.2,30.3c19.6,19.6,30.3,45.6,30.3,73.3   C444.801,187.101,434.001,213.101,414.401,232.701z"
   id="path1" />
</g>
<path
   d="M 416.75887,84.878656 C 394.3616,63.390931 364.71015,51.646627 333.0638,51.646627 c -31.64635,0 -61.38848,11.831298 -83.78576,33.319024 L 237.58069,96.187989 225.70196,84.791662 c -22.39726,-21.487727 -52.23008,-33.40602 -83.87643,-33.40602 -31.55567,0 -61.297795,11.831298 -83.604392,33.23203 C 35.823871,106.1054 23.491761,134.63971 23.58244,165.00091 c 0,30.3612 12.422779,58.80851 34.820056,80.29624 L 228.69431,408.67346 c 2.35761,2.26186 5.53131,3.47979 8.61434,3.47979 3.08303,0 6.25673,-1.13093 8.61434,-3.39279 L 416.57752,245.64513 c 22.39728,-21.48773 34.72938,-50.02204 34.72938,-80.38324 0.0907,-30.3612 -12.15075,-58.89551 -34.54803,-80.383234 z M 399.34885,229.02911 237.30865,383.87993 75.631171,228.76812 C 57.85843,211.71714 48.065292,189.09847 48.065292,165.00091 c 0,-24.09757 9.702459,-46.71623 27.4752,-63.68023 17.682061,-16.963992 41.258138,-26.359436 66.285038,-26.359436 25.1176,0 48.78435,9.395444 66.55709,26.446436 l 20.49305,19.66083 c 4.8059,4.61073 12.51346,4.61073 17.31935,0 l 20.3117,-19.48684 c 17.77274,-17.050993 41.43948,-26.446436 66.4664,-26.446436 25.02692,0 48.603,9.395443 66.37573,26.359446 17.77274,17.05098 27.4752,39.66965 27.4752,63.76721 0.0906,24.09758 -9.70246,46.71623 -27.4752,63.76722 z"
   id="path1-0"
   style="stroke-width:0.888169" /><path
   style="fill:#ff0909;fill-opacity:1;stroke-width:0.497525"
   d="M 265.13691,518.92279 C 189.63671,446.52665 126.10737,385.45301 123.96061,383.20358 97.438263,355.41285 83.108695,321.56641 81.995988,284.08312 c -0.761409,-25.64926 4.324183,-48.27586 16.056736,-71.43893 19.018096,-37.54662 54.953116,-66.76605 96.911616,-78.80066 15.39637,-4.41601 28.61279,-6.2189 45.58878,-6.2189 27.32358,0 50.44955,5.44294 74.13116,17.44755 17.30426,8.77182 27.00414,16.03998 46.76731,35.04293 27.75329,26.68572 28.78229,27.61882 32.25285,29.24673 2.8343,1.32946 4.023,1.58603 8.123,1.75328 3.62933,0.14806 5.45277,-0.0151 7.46287,-0.66754 5.22801,-1.69707 5.2492,-1.71502 29.34688,-24.87092 25.72515,-24.71977 33.92755,-31.05193 52.17079,-40.27526 17.15454,-8.67292 34.10676,-13.80797 54.5379,-16.52027 8.87992,-1.17883 29.74788,-1.18176 38.74795,-0.005 19.7886,2.58641 37.12519,7.80523 53.97266,16.24734 60.95243,30.54275 94.35414,94.39867 83.54129,159.71076 -4.95246,29.91386 -18.9415,57.15816 -41.0505,79.94778 -3.50262,3.61045 -262.31934,251.02984 -276.61102,264.43012 l -1.53626,1.44043 z"
   id="path2"
   transform="scale(0.58962625)" /></svg>
